<?xml version="1.0" standalone="no"?><!DOCTYPE svg PUBLIC "-//W3C//DTD SVG 1.1//EN" "http://www.w3.org/Graphics/SVG/1.1/DTD/svg11.dtd"><svg t="1728464264866" class="icon" viewBox="0 0 1024 1024" version="1.1" xmlns="http://www.w3.org/2000/svg" p-id="4409" data-darkreader-inline-fill="" xmlns:xlink="http://www.w3.org/1999/xlink" width="200" height="200"><path d="M272.951067 354.403682l0 360.108614c0 47.272653 38.46608 85.738733 85.739756 85.738733l308.664965 0c47.273676 0 85.738733-38.46608 85.738733-85.738733L753.094522 354.403682 272.951067 354.403682zM718.799438 714.512297c0 28.367071-23.076578 51.442626-51.442626 51.442626L358.690824 765.954923c-28.368094 0-51.443649-23.075555-51.443649-51.442626L307.247174 388.69979l411.552264 0L718.799438 714.512297z" p-id="4410"></path><path d="M375.838366 440.143439l34.297131 0 0 257.220293-34.297131 0 0-257.220293Z" p-id="4411"></path><path d="M495.875253 440.143439l34.297131 0 0 257.220293-34.297131 0 0-257.220293Z" p-id="4412"></path><path d="M615.911116 440.143439l34.297131 0 0 257.220293-34.297131 0 0-257.220293Z" p-id="4413"></path><path d="M735.948003 260.089643 598.763574 260.089643 598.763574 225.794559 427.283038 225.794559 427.283038 260.089643 290.099632 260.089643 290.099632 294.38575 735.948003 294.38575Z" p-id="4414"></path></svg>